PathFileType	4	(X/Y/Z)	C:/Users/beibeiliu/ov580/test_trc\sequence.33_training_dense_right.trc
DataRate	CameraRate	NumFrames	NumMarkers	Units	OrigDataRate	OrigDataStartFrame	OrigNumFrames
120	120	8	19	mm	120	1	373
Frame#	Time	ThumbCMC			ThumbMCP			ThumbIP			ThumbTip			IndexMCP			IndexPIP			IndexTip			MiddleMCP			MiddlePIP			MiddleTip			RingMCP			RingPIP			RingTip			PinkyMCP			PinkyPIP			PinkyTip			BackHand1			BackHand2			BackHand3	
		X0	Y0	Z0	X1	Y1	Z1	X2	Y2	Z2	X3	Y3	Z3	X4	Y4	Z4	X5	Y5	Z5	X6	Y6	Z6	X7	Y7	Z7	X8	Y8	Z8	X9	Y9	Z9	X10	Y10	Z10	X11	Y11	Z11	X12	Y12	Z12	X13	Y13	Z13	X14	Y14	Z14	X15	Y15	Z15	X16	Y16	Z16	X17	Y17	Z17	X18	Y18	Z18	
0	0	155.173	-3.27418	27.5215	134.294	-12.7985	7.95088	125.422	-18.1629	-13.5026	117.155	-22.7727	-29.755	165.232	-2.04723	-39.8577	162.727	-8.77288	-65.056	157.263	-11.6986	-83.2164	191.133	-6.06712	-43.5843	189.515	-9.85218	-66.9728	195.737	-15.6007	-91.6968	206.729	-12.8279	-35.3912	211.151	-16.5771	-57.5116	217.62	-20.4237	-78.0122	221.721	-19.1494	-19.6268	231.749	-21.0183	-33.8974	242.446	-18.8246	-45.0112	202.611	0.831769	5.70303	201.271	10.0125	31.6759	177.668	12.3658	16.5536	
1	0.00833333	153.24	-4.34958	22.6206	138.396	-14.7608	9.13506	127.101	-19.5637	-14.7879	114.494	-24.7155	-26.8454	164.852	-3.82267	-39.6119	160.531	-7.86523	-64.9056	160.614	-15.0883	-86.7263	187.181	-6.37536	-43.0146	189.231	-11.1358	-71.0887	195.625	-15.9065	-93.8836	204.787	-13.0691	-38.1954	214.64	-18.4288	-53.785	216.198	-21.0829	-77.8501	220.781	-20.5563	-19.5665	232.415	-22.4372	-35.2382	240.418	-20.2316	-50.7622	201.928	-0.444835	5.5873	201.07	8.12743	31.0943	176.918	11.9749	13.1002	
2	0.0166667	152.236	-4.62114	28.2317	139.09	-15.8347	7.00552	126.097	-20.1924	-13.3814	117.893	-25.0346	-28.3907	165.621	-4.46153	-39.5785	160.257	-7.81185	-60.9818	161.712	-15.3291	-83.4462	188.09	-7.66751	-47.7026	189.258	-11.7305	-70.1686	196.518	-17.2428	-94.5989	207.648	-14.568	-35.9025	211.031	-18.6943	-54.0553	217.038	-22.9319	-75.8357	221.925	-20.1371	-20.6935	231.191	-24.5346	-32.7454	239.086	-21.37	-46.3958	203.161	-0.893048	4.80715	204.5	7.72028	28.6717	179.155	11.668	14.9036	
3	0.025	151.846	-4.76025	25.6041	137.049	-15.5092	10.0344	127.456	-20.4969	-14.5772	116.076	-25.8608	-28.4311	164.132	-4.11104	-37.4516	161.153	-9.75491	-64.707	163.58	-16.9464	-84.5663	192.312	-8.56237	-44.6437	193.69	-13.5472	-70.0468	198.924	-18.7932	-91.6421	207.123	-13.6238	-37.3648	213.738	-18.8642	-57.2295	216.302	-23.2756	-76.2073	222.002	-20.4802	-18.9486	229.748	-24.5297	-30.8865	242.983	-21.1855	-48.0364	201.224	1.16141	4.82952	203.053	6.20758	32.0911	175.866	10.5812	11.806	
4	0.0333333	151.644	-4.11079	24.3099	138.835	-15.7299	9.05751	127.796	-20.6234	-12.9747	117.741	-26.5188	-29.118	166.792	-4.61835	-41.0713	162.06	-8.49023	-61.7744	164.787	-17.7053	-83.4685	188.063	-7.37972	-41.8183	191.93	-13.9464	-69.9761	196.145	-17.3211	-90.4281	206.12	-14.6798	-32.4138	211.532	-18.9875	-58.2525	217.423	-22.6055	-77.6168	223.061	-21.8036	-15.8679	233.024	-23.9871	-34.6132	243.641	-22.7034	-48.3513	202.321	0.241912	8.30416	206.862	7.30871	31.9768	181.761	9.8625	15.9702	
5	0.0416667	153.264	-5.76476	23.6803	141.594	-17.0647	8.71922	130.786	-22.4483	-8.61825	120.184	-27.4302	-25.7621	164.483	-5.859	-39.3781	166.914	-11.577	-63.3809	159.788	-17.5704	-86.3029	191.337	-8.54762	-41.4794	194.966	-13.2925	-66.1761	196.18	-17.6288	-88.8339	206.727	-14.886	-35.9073	214.879	-19.243	-54.237	215.304	-23.2272	-73.8689	226.547	-22.6915	-18.5343	230.749	-24.5861	-32.105	246.485	-22.043	-48.0756	207.305	-2.43025	6.14421	204.863	5.48089	29.4068	182.298	8.49529	12.3071	
6	0.05	156.073	-6.46415	24.2591	138.407	-15.6614	9.68687	126.618	-21.3142	-11.6872	117.207	-27.8427	-25.4741	166.355	-5.80145	-40.0494	162.237	-10.2972	-64.4383	165.417	-18.213	-85.2652	189.484	-7.29158	-43.5519	193.237	-12.825	-67.1145	197.697	-18.2831	-91.3072	211.508	-14.6167	-35.4384	216.697	-19.1693	-54.7328	219.68	-23.0222	-73.7837	223.79	-21.6351	-17.571	236.05	-25.8142	-33.0757	247.215	-22.8765	-49.4383	204.416	0.315021	7.99917	202.97	6.47078	31.0791	180.418	8.67513	12.5079	
7	0.0583333	154.908	-6.23161	27.931	139.177	-15.8404	8.65202	128.409	-21.3845	-11.4113	118.017	-26.994	-28.5476	165.056	-4.67677	-40.9508	165.899	-11.7396	-66.3371	163.712	-17.9696	-88.5003	192.225	-8.88892	-45.3731	194.283	-13.7129	-69.0417	201.746	-20.0161	-95.2854	212.661	-16.0567	-36.2372	218.587	-20.0941	-55.9999	217.883	-22.2451	-74.5367	224.191	-21.262	-16.3291	232.51	-24.5587	-31.5519	247.138	-21.991	-46.7751	204.539	0.634465	3.16573	204.05	7.25869	32.4338	178.564	10.1761	14.7875	
